solid OpenSCAD_Model
  facet normal -1 0 0
    outer loop
      vertex 0 33 3
      vertex 0 33 0
      vertex 0 3 3
    endloop
  endfacet
  facet normal -1 0 0
    outer loop
      vertex 0 0 0
      vertex 0 0 23
      vertex 0 3 3
    endloop
  endfacet
  facet normal -1 0 0
    outer loop
      vertex 0 0 0
      vertex 0 3 3
      vertex 0 33 0
    endloop
  endfacet
  facet normal -1 0 0
    outer loop
      vertex 0 3 3
      vertex 0 0 23
      vertex 0 3 23
    endloop
  endfacet
  facet normal 0 -1 0
    outer loop
      vertex 0 0 23
      vertex 0 0 0
      vertex 43 0 0
    endloop
  endfacet
  facet normal 0 -1 0
    outer loop
      vertex 43 0 23
      vertex 0 0 23
      vertex 43 0 0
    endloop
  endfacet
  facet normal 0 0 -1
    outer loop
      vertex 0 0 0
      vertex 0 33 0
      vertex 43 0 0
    endloop
  endfacet
  facet normal 0 0 -1
    outer loop
      vertex 43 0 0
      vertex 0 33 0
      vertex 43 33 0
    endloop
  endfacet
  facet normal 0 1 0
    outer loop
      vertex 0 33 0
      vertex 0 33 3
      vertex 43 33 0
    endloop
  endfacet
  facet normal 0 1 0
    outer loop
      vertex 43 33 0
      vertex 0 33 3
      vertex 40 33 3
    endloop
  endfacet
  facet normal 0 1 0
    outer loop
      vertex 43 33 0
      vertex 40 33 3
      vertex 40 33 23
    endloop
  endfacet
  facet normal 0 1 0
    outer loop
      vertex 43 33 0
      vertex 40 33 23
      vertex 43 33 23
    endloop
  endfacet
  facet normal 0 0 1
    outer loop
      vertex 40 3 3
      vertex 40 33 3
      vertex 0 33 3
    endloop
  endfacet
  facet normal 0 0 1
    outer loop
      vertex 0 3 3
      vertex 40 3 3
      vertex 0 33 3
    endloop
  endfacet
  facet normal 0 1 0
    outer loop
      vertex 40 3 23
      vertex 40 3 3
      vertex 0 3 23
    endloop
  endfacet
  facet normal 0 1 0
    outer loop
      vertex 0 3 23
      vertex 40 3 3
      vertex 0 3 3
    endloop
  endfacet
  facet normal 0 0 1
    outer loop
      vertex 0 3 23
      vertex 0 0 23
      vertex 43 0 23
    endloop
  endfacet
  facet normal 0 0 1
    outer loop
      vertex 40 3 23
      vertex 0 3 23
      vertex 43 0 23
    endloop
  endfacet
  facet normal 0 0 1
    outer loop
      vertex 43 18 23
      vertex 40 3 23
      vertex 43 0 23
    endloop
  endfacet
  facet normal 0 0 1
    outer loop
      vertex 40 18 23
      vertex 40 3 23
      vertex 43 18 23
    endloop
  endfacet
  facet normal 1 0 0
    outer loop
      vertex 43 0 23
      vertex 43 0 0
      vertex 43 33 0
    endloop
  endfacet
  facet normal 1 0 0
    outer loop
      vertex 43 18 21.4
      vertex 43 0 23
      vertex 43 33 0
    endloop
  endfacet
  facet normal 1 0 0
    outer loop
      vertex 43 33 23
      vertex 43 24.5 23
      vertex 43 33 0
    endloop
  endfacet
  facet normal 1 0 0
    outer loop
      vertex 43 24.5 23
      vertex 43 24.5 21.4
      vertex 43 33 0
    endloop
  endfacet
  facet normal 1 0 0
    outer loop
      vertex 43 24.5 21.4
      vertex 43 18 21.4
      vertex 43 33 0
    endloop
  endfacet
  facet normal 1 0 0
    outer loop
      vertex 43 18 21.4
      vertex 43 18 23
      vertex 43 0 23
    endloop
  endfacet
  facet normal 0 0 1
    outer loop
      vertex 40 33 23
      vertex 40 24.5 23
      vertex 43 24.5 23
    endloop
  endfacet
  facet normal 0 0 1
    outer loop
      vertex 43 33 23
      vertex 40 33 23
      vertex 43 24.5 23
    endloop
  endfacet
  facet normal -1 0 0
    outer loop
      vertex 40 18 23
      vertex 40 18 21.4
      vertex 40 3 23
    endloop
  endfacet
  facet normal -1 0 0
    outer loop
      vertex 40 3 23
      vertex 40 18 21.4
      vertex 40 33 3
    endloop
  endfacet
  facet normal -1 0 0
    outer loop
      vertex 40 33 23
      vertex 40 24.5 21.4
      vertex 40 24.5 23
    endloop
  endfacet
  facet normal -1 0 0
    outer loop
      vertex 40 33 3
      vertex 40 24.5 21.4
      vertex 40 33 23
    endloop
  endfacet
  facet normal -1 0 0
    outer loop
      vertex 40 18 21.4
      vertex 40 24.5 21.4
      vertex 40 33 3
    endloop
  endfacet
  facet normal -1 0 0
    outer loop
      vertex 40 3 23
      vertex 40 33 3
      vertex 40 3 3
    endloop
  endfacet
  facet normal 0 1 0
    outer loop
      vertex 43 18 23
      vertex 43 18 21.4
      vertex 40 18 23
    endloop
  endfacet
  facet normal 0 1 0
    outer loop
      vertex 40 18 23
      vertex 43 18 21.4
      vertex 40 18 21.4
    endloop
  endfacet
  facet normal 0 0 1
    outer loop
      vertex 43 18 21.4
      vertex 43 24.5 21.4
      vertex 40 24.5 21.4
    endloop
  endfacet
  facet normal 0 0 1
    outer loop
      vertex 40 18 21.4
      vertex 43 18 21.4
      vertex 40 24.5 21.4
    endloop
  endfacet
  facet normal 0 -1 0
    outer loop
      vertex 43 24.5 21.4
      vertex 43 24.5 23
      vertex 40 24.5 23
    endloop
  endfacet
  facet normal 0 -1 0
    outer loop
      vertex 40 24.5 21.4
      vertex 43 24.5 21.4
      vertex 40 24.5 23
    endloop
  endfacet
endsolid OpenSCAD_Model
