solid OpenSCAD_Model
  facet normal -1 0 0
    outer loop
      vertex 0 0 0
      vertex 0 0 23
      vertex 0 33 0
    endloop
  endfacet
  facet normal -1 0 0
    outer loop
      vertex 0 18 21.4
      vertex 0 0 23
      vertex 0 18 23
    endloop
  endfacet
  facet normal -1 0 0
    outer loop
      vertex 0 33 0
      vertex 0 0 23
      vertex 0 18 21.4
    endloop
  endfacet
  facet normal -1 0 0
    outer loop
      vertex 0 33 0
      vertex 0 24.5 21.4
      vertex 0 24.5 23
    endloop
  endfacet
  facet normal -1 0 0
    outer loop
      vertex 0 33 0
      vertex 0 24.5 23
      vertex 0 33 23
    endloop
  endfacet
  facet normal -1 0 0
    outer loop
      vertex 0 24.5 21.4
      vertex 0 33 0
      vertex 0 18 21.4
    endloop
  endfacet
  facet normal 0 -1 0
    outer loop
      vertex 0 0 23
      vertex 0 0 0
      vertex 43 0 0
    endloop
  endfacet
  facet normal 0 -1 0
    outer loop
      vertex 43 0 23
      vertex 0 0 23
      vertex 43 0 0
    endloop
  endfacet
  facet normal 0 0 -1
    outer loop
      vertex 0 0 0
      vertex 0 33 0
      vertex 43 0 0
    endloop
  endfacet
  facet normal 0 0 -1
    outer loop
      vertex 43 0 0
      vertex 0 33 0
      vertex 43 33 0
    endloop
  endfacet
  facet normal 0 1 0
    outer loop
      vertex 43 33 3
      vertex 43 33 0
      vertex 3 33 3
    endloop
  endfacet
  facet normal 0 1 0
    outer loop
      vertex 0 33 0
      vertex 0 33 23
      vertex 3 33 3
    endloop
  endfacet
  facet normal 0 1 0
    outer loop
      vertex 0 33 0
      vertex 3 33 3
      vertex 43 33 0
    endloop
  endfacet
  facet normal 0 1 0
    outer loop
      vertex 3 33 3
      vertex 0 33 23
      vertex 3 33 23
    endloop
  endfacet
  facet normal 0 0 1
    outer loop
      vertex 0 33 23
      vertex 0 24.5 23
      vertex 3 24.5 23
    endloop
  endfacet
  facet normal 0 0 1
    outer loop
      vertex 3 33 23
      vertex 0 33 23
      vertex 3 24.5 23
    endloop
  endfacet
  facet normal 0 -1 0
    outer loop
      vertex 3 24.5 21.4
      vertex 3 24.5 23
      vertex 0 24.5 23
    endloop
  endfacet
  facet normal 0 -1 0
    outer loop
      vertex 0 24.5 21.4
      vertex 3 24.5 21.4
      vertex 0 24.5 23
    endloop
  endfacet
  facet normal 0 0 1
    outer loop
      vertex 3 18 21.4
      vertex 3 24.5 21.4
      vertex 0 24.5 21.4
    endloop
  endfacet
  facet normal 0 0 1
    outer loop
      vertex 0 18 21.4
      vertex 3 18 21.4
      vertex 0 24.5 21.4
    endloop
  endfacet
  facet normal 0 1 0
    outer loop
      vertex 3 18 23
      vertex 3 18 21.4
      vertex 0 18 23
    endloop
  endfacet
  facet normal 0 1 0
    outer loop
      vertex 0 18 23
      vertex 3 18 21.4
      vertex 0 18 21.4
    endloop
  endfacet
  facet normal 0 0 1
    outer loop
      vertex 3 3 23
      vertex 0 0 23
      vertex 43 0 23
    endloop
  endfacet
  facet normal 0 0 1
    outer loop
      vertex 3 3 23
      vertex 3 18 23
      vertex 0 18 23
    endloop
  endfacet
  facet normal 0 0 1
    outer loop
      vertex 0 18 23
      vertex 0 0 23
      vertex 3 3 23
    endloop
  endfacet
  facet normal 0 0 1
    outer loop
      vertex 43 3 23
      vertex 3 3 23
      vertex 43 0 23
    endloop
  endfacet
  facet normal 1 0 0
    outer loop
      vertex 43 3 3
      vertex 43 0 0
      vertex 43 33 0
    endloop
  endfacet
  facet normal 1 0 0
    outer loop
      vertex 43 3 3
      vertex 43 3 23
      vertex 43 0 23
    endloop
  endfacet
  facet normal 1 0 0
    outer loop
      vertex 43 0 23
      vertex 43 0 0
      vertex 43 3 3
    endloop
  endfacet
  facet normal 1 0 0
    outer loop
      vertex 43 33 3
      vertex 43 3 3
      vertex 43 33 0
    endloop
  endfacet
  facet normal 0 0 1
    outer loop
      vertex 43 3 3
      vertex 43 33 3
      vertex 3 33 3
    endloop
  endfacet
  facet normal 0 0 1
    outer loop
      vertex 3 3 3
      vertex 43 3 3
      vertex 3 33 3
    endloop
  endfacet
  facet normal 1 0 0
    outer loop
      vertex 3 33 3
      vertex 3 33 23
      vertex 3 24.5 23
    endloop
  endfacet
  facet normal 1 0 0
    outer loop
      vertex 3 18 21.4
      vertex 3 33 3
      vertex 3 24.5 21.4
    endloop
  endfacet
  facet normal 1 0 0
    outer loop
      vertex 3 24.5 21.4
      vertex 3 33 3
      vertex 3 24.5 23
    endloop
  endfacet
  facet normal 1 0 0
    outer loop
      vertex 3 3 23
      vertex 3 33 3
      vertex 3 18 21.4
    endloop
  endfacet
  facet normal 1 0 0
    outer loop
      vertex 3 3 23
      vertex 3 18 21.4
      vertex 3 18 23
    endloop
  endfacet
  facet normal 1 0 0
    outer loop
      vertex 3 20.6 4
      vertex 3 33 3
      vertex 3 3 23
    endloop
  endfacet
  facet normal 1 0 0
    outer loop
      vertex 3 3 3
      vertex 3 5.5 4
      vertex 3 3 23
    endloop
  endfacet
  facet normal 1 0 0
    outer loop
      vertex 3 5.5 4
      vertex 3 20.6 4
      vertex 3 3 23
    endloop
  endfacet
  facet normal 1 0 0
    outer loop
      vertex 3 3 3
      vertex 3 33 3
      vertex 3 20.6 3
    endloop
  endfacet
  facet normal 1 0 0
    outer loop
      vertex 3 3 3
      vertex 3 5.5 3
      vertex 3 5.5 4
    endloop
  endfacet
  facet normal 1 0 0
    outer loop
      vertex 3 3 3
      vertex 3 20.6 3
      vertex 3 5.5 3
    endloop
  endfacet
  facet normal 1 0 0
    outer loop
      vertex 3 20.6 4
      vertex 3 20.6 3
      vertex 3 33 3
    endloop
  endfacet
  facet normal 0 1 0
    outer loop
      vertex 43 3 23
      vertex 43 3 3
      vertex 3 3 23
    endloop
  endfacet
  facet normal 0 1 0
    outer loop
      vertex 3 3 23
      vertex 43 3 3
      vertex 3 3 3
    endloop
  endfacet
  facet normal -2.22045e-016 4.93038e-032 -1
    outer loop
      vertex 3 20.6 4
      vertex 3 5.5 4
      vertex 2 20.6 4
    endloop
  endfacet
  facet normal -2.22045e-016 4.93038e-032 -1
    outer loop
      vertex 2 20.6 4
      vertex 3 5.5 4
      vertex 2 5.5 4
    endloop
  endfacet
  facet normal 2.22045e-016 1 -4.93038e-032
    outer loop
      vertex 3 5.5 4
      vertex 3 5.5 3
      vertex 2 5.5 4
    endloop
  endfacet
  facet normal 2.22045e-016 1 -4.93038e-032
    outer loop
      vertex 2 5.5 4
      vertex 3 5.5 3
      vertex 2 5.5 3
    endloop
  endfacet
  facet normal 2.22045e-016 -4.93038e-032 1
    outer loop
      vertex 3 5.5 3
      vertex 3 20.6 3
      vertex 2 20.6 3
    endloop
  endfacet
  facet normal 2.22045e-016 -4.93038e-032 1
    outer loop
      vertex 2 5.5 3
      vertex 3 5.5 3
      vertex 2 20.6 3
    endloop
  endfacet
  facet normal -2.22045e-016 -1 4.93038e-032
    outer loop
      vertex 3 20.6 3
      vertex 3 20.6 4
      vertex 2 20.6 4
    endloop
  endfacet
  facet normal -2.22045e-016 -1 4.93038e-032
    outer loop
      vertex 2 20.6 3
      vertex 3 20.6 3
      vertex 2 20.6 4
    endloop
  endfacet
  facet normal 1 -2.22045e-016 -2.22045e-016
    outer loop
      vertex 2 20.6 3
      vertex 2 20.6 4
      vertex 2 5.5 4
    endloop
  endfacet
  facet normal 1 -2.22045e-016 -2.22045e-016
    outer loop
      vertex 2 5.5 3
      vertex 2 20.6 3
      vertex 2 5.5 4
    endloop
  endfacet
endsolid OpenSCAD_Model
